<svg width="160" height="160" viewBox="0 0 160 160" fill="none" xmlns="http://www.w3.org/2000/svg">
<path d="M77.5088 77.8105C76.8813 80.4965 75.9863 83.0039 74.8223 85.332C72.2967 90.383 68.7784 94.3212 64.2686 97.1475C59.7587 99.9736 54.6173 101.388 48.8447 101.388C42.8918 101.388 37.69 100.094 33.2402 97.5088C28.7905 94.9231 25.3326 91.1948 22.8672 86.3242C21.5699 83.7613 20.6147 80.9232 20 77.8105H30.8828C31.3023 80.4074 31.9055 82.8247 32.6982 85.0615C34.382 89.7518 36.6674 93.3899 39.5537 95.9756C42.44 98.501 45.6573 99.7636 49.2051 99.7637C52.9331 99.7636 56.1505 98.4109 58.8564 95.7051C61.6225 92.9991 63.7574 89.27 65.2607 84.5195C65.9445 82.4155 66.4794 80.1792 66.8643 77.8105H77.5088ZM99.5859 77.8105C99.7691 78.9682 99.9867 80.0925 100.242 81.1826C101.144 84.9709 102.436 88.2486 104.12 91.0146C105.864 93.7206 107.939 95.8248 110.345 97.3281C112.81 98.7712 115.546 99.4932 118.553 99.4932C121.018 99.4931 123.574 99.0119 126.22 98.0498C128.865 97.0276 130.97 95.4944 132.533 93.4502C134.217 91.6462 135.36 89.6311 135.961 87.4062C136.622 85.1212 137.164 82.0239 137.585 78.1152H139.659C139.659 83.6475 139.69 88.1281 139.75 91.5557C139.81 94.9231 139.9 97.7798 140.021 100.125H137.945C137.705 97.5394 137.284 95.9155 136.683 95.2539C136.141 94.5925 135.21 94.6827 133.887 95.5244C131.662 97.0878 129.286 98.4712 126.761 99.6738C124.295 100.816 121.108 101.388 117.199 101.388C111.246 101.388 106.044 100.094 101.595 97.5088C97.145 94.9231 93.6871 91.1949 91.2217 86.3242C89.9243 83.7612 88.9692 80.9231 88.3545 77.8105H99.5859ZM48.9346 35C54.8276 35 59.9994 36.2932 64.4492 38.8789C68.959 41.4646 72.4467 45.1928 74.9121 50.0635C76.1725 52.5228 77.1095 55.2573 77.7256 58.2666H66.8262C66.3937 55.7729 65.7832 53.4591 64.9902 51.3262C63.3065 46.6358 61.0211 43.0275 58.1348 40.502C55.3087 37.9165 52.1217 36.6242 48.5742 36.624C44.846 36.624 41.5981 37.9767 38.832 40.6826C36.066 43.3886 33.9311 47.1168 32.4277 51.8672C31.7949 53.867 31.2971 56.0004 30.9307 58.2666H20.3438C20.9669 55.6977 21.8379 53.294 22.957 51.0557C25.5428 46.0045 29.0609 42.0655 33.5107 39.2393C37.9605 36.4132 43.1018 35 48.9346 35ZM117.29 35C121.259 35.0001 124.506 35.6011 127.031 36.8037C129.617 37.9462 131.902 39.2998 133.887 40.8633C135.089 41.765 135.992 41.885 136.593 41.2236C137.254 40.5019 137.705 38.8481 137.945 36.2627H140.021C139.9 38.5478 139.81 41.3143 139.75 44.5615C139.69 47.7486 139.659 52.0184 139.659 57.3701H137.585C137.164 54.7243 136.743 52.5587 136.322 50.875C135.961 49.1914 135.45 47.7485 134.788 46.5459C134.187 45.3433 133.345 44.1698 132.263 43.0273C130.519 40.8628 128.384 39.3 125.858 38.3379C123.333 37.3758 120.657 36.8946 117.831 36.8945C114.764 36.8945 112.058 37.6759 109.713 39.2393C107.368 40.7425 105.383 42.9073 103.76 45.7334C102.196 48.5597 100.993 51.8976 100.151 55.7461C99.9712 56.5697 99.8115 57.41 99.6699 58.2666H88.6992C89.3226 55.6977 90.1934 53.2939 91.3125 51.0557C93.8982 46.0046 97.4155 42.0655 101.865 39.2393C106.315 36.413 111.457 35 117.29 35Z" fill="#1A1A1A"/>
<path d="M71.6578 124.98C71.1299 124.98 70.7023 124.816 70.3749 124.489C70.0542 124.154 69.8939 123.72 69.8939 123.186V122.925C69.8939 122.858 69.9273 122.825 69.9941 122.825H70.7357C70.8026 122.825 70.836 122.858 70.836 122.925V123.135C70.836 123.443 70.9128 123.69 71.0665 123.877C71.2201 124.058 71.4173 124.148 71.6578 124.148C71.8983 124.148 72.0954 124.061 72.2491 123.887C72.4095 123.707 72.4896 123.473 72.4896 123.186C72.4896 122.992 72.4462 122.821 72.3593 122.674C72.2792 122.527 72.1689 122.397 72.0286 122.284C71.895 122.163 71.6745 121.99 71.3671 121.762C71.0264 121.509 70.7591 121.291 70.5654 121.111C70.3716 120.931 70.2079 120.713 70.0743 120.46C69.9406 120.206 69.8738 119.908 69.8738 119.568C69.8738 119.026 70.0342 118.599 70.3549 118.285C70.6756 117.964 71.0932 117.804 71.6077 117.804C72.1422 117.804 72.5698 117.974 72.8905 118.315C73.2179 118.656 73.3816 119.103 73.3816 119.658V119.908C73.3816 119.975 73.3482 120.009 73.2814 120.009H72.5397C72.4729 120.009 72.4395 119.975 72.4395 119.908V119.638C72.4395 119.337 72.3627 119.097 72.209 118.916C72.0553 118.729 71.8549 118.636 71.6077 118.636C71.3738 118.636 71.1834 118.719 71.0364 118.886C70.8894 119.046 70.8159 119.274 70.8159 119.568C70.8159 119.835 70.8894 120.062 71.0364 120.249C71.1834 120.429 71.4674 120.673 71.8883 120.981C72.2892 121.281 72.5899 121.525 72.7903 121.712C72.9974 121.899 73.1544 122.107 73.2613 122.334C73.3749 122.554 73.4317 122.818 73.4317 123.125C73.4317 123.687 73.268 124.138 72.9406 124.478C72.6132 124.813 72.1856 124.98 71.6578 124.98ZM77.2881 124.98C76.7402 124.98 76.2992 124.813 75.9652 124.478C75.6311 124.144 75.464 123.7 75.464 123.146V119.648C75.464 119.093 75.6311 118.649 75.9652 118.315C76.2992 117.974 76.7402 117.804 77.2881 117.804C77.8427 117.804 78.287 117.974 78.6211 118.315C78.9618 118.649 79.1322 119.093 79.1322 119.648V123.146C79.1322 123.7 78.9618 124.144 78.6211 124.478C78.287 124.813 77.8427 124.98 77.2881 124.98ZM77.2881 124.148C77.5554 124.148 77.7692 124.061 77.9295 123.887C78.0899 123.707 78.1701 123.473 78.1701 123.186V119.598C78.1701 119.31 78.0899 119.08 77.9295 118.906C77.7692 118.726 77.5554 118.636 77.2881 118.636C77.0275 118.636 76.817 118.726 76.6567 118.906C76.503 119.08 76.4262 119.31 76.4262 119.598V123.186C76.4262 123.473 76.503 123.707 76.6567 123.887C76.817 124.061 77.0275 124.148 77.2881 124.148ZM84.7839 118.615C84.7839 118.682 84.7505 118.716 84.6836 118.716H82.4387C82.4119 118.716 82.3986 118.729 82.3986 118.756V120.931C82.3986 120.957 82.4119 120.971 82.4387 120.971H83.8117C83.8785 120.971 83.9119 121.004 83.9119 121.071V121.702C83.9119 121.769 83.8785 121.803 83.8117 121.803H82.4387C82.4119 121.803 82.3986 121.816 82.3986 121.843V124.799C82.3986 124.866 82.3652 124.899 82.2984 124.899H81.5367C81.4698 124.899 81.4364 124.866 81.4364 124.799V117.984C81.4364 117.917 81.4698 117.884 81.5367 117.884H84.6836C84.7505 117.884 84.7839 117.917 84.7839 117.984V118.615ZM89.1631 124.899C89.103 124.899 89.0662 124.869 89.0529 124.809L88.8324 123.657C88.8324 123.643 88.8257 123.633 88.8123 123.627C88.8057 123.62 88.7956 123.617 88.7823 123.617H87.1486C87.1353 123.617 87.1219 123.62 87.1086 123.627C87.1019 123.633 87.0985 123.643 87.0985 123.657L86.8881 124.809C86.8814 124.869 86.8446 124.899 86.7778 124.899H86.0161C85.9827 124.899 85.956 124.889 85.936 124.869C85.9226 124.849 85.9193 124.823 85.9259 124.789L87.4192 117.974C87.4326 117.914 87.4694 117.884 87.5295 117.884H88.4215C88.4883 117.884 88.525 117.914 88.5317 117.974L90.0351 124.789V124.809C90.0351 124.869 90.005 124.899 89.9449 124.899H89.1631ZM87.2689 122.815C87.2689 122.842 87.2789 122.855 87.299 122.855H88.6319C88.652 122.855 88.662 122.842 88.662 122.815L87.9805 119.257C87.9738 119.244 87.9671 119.237 87.9605 119.237C87.9538 119.237 87.9471 119.244 87.9404 119.257L87.2689 122.815Z" fill="#1A1A1A"/>
<path d="M51.5661 71.8821C51.0147 71.8821 50.5069 71.7913 50.0428 71.6098C49.5788 71.4282 49.1753 71.176 48.8323 70.8531C48.4893 70.5236 48.2236 70.1403 48.0353 69.7031C47.847 69.2592 47.7529 68.775 47.7529 68.2504C47.7529 67.7258 47.847 67.245 48.0353 66.8078C48.2236 66.364 48.4893 65.9806 48.8323 65.6578C49.1753 65.3283 49.5788 65.0727 50.0428 64.8911C50.5069 64.7095 51.0113 64.6187 51.5561 64.6187C52.1075 64.6187 52.6119 64.7095 53.0693 64.8911C53.5333 65.0727 53.9368 65.3283 54.2798 65.6578C54.6228 65.9806 54.8885 66.364 55.0768 66.8078C55.2651 67.245 55.3593 67.7258 55.3593 68.2504C55.3593 68.775 55.2651 69.2592 55.0768 69.7031C54.8885 70.147 54.6228 70.5303 54.2798 70.8531C53.9368 71.176 53.5333 71.4282 53.0693 71.6098C52.6119 71.7913 52.1109 71.8821 51.5661 71.8821ZM51.5561 70.7321C51.9125 70.7321 52.242 70.6716 52.5447 70.5505C52.8473 70.4295 53.1096 70.258 53.3316 70.036C53.5535 69.8074 53.725 69.5451 53.846 69.2491C53.9738 68.9465 54.0377 68.6136 54.0377 68.2504C54.0377 67.8873 53.9738 67.5577 53.846 67.2618C53.725 66.9592 53.5535 66.6969 53.3316 66.4749C53.1096 66.2463 52.8473 66.0714 52.5447 65.9504C52.242 65.8293 51.9125 65.7688 51.5561 65.7688C51.1996 65.7688 50.8701 65.8293 50.5674 65.9504C50.2715 66.0714 50.0092 66.2463 49.7806 66.4749C49.5586 66.6969 49.3838 66.9592 49.256 67.2618C49.1349 67.5577 49.0744 67.8873 49.0744 68.2504C49.0744 68.6069 49.1349 68.9364 49.256 69.2391C49.3838 69.5417 49.5586 69.8074 49.7806 70.036C50.0025 70.258 50.2648 70.4295 50.5674 70.5505C50.8701 70.6716 51.1996 70.7321 51.5561 70.7321ZM60.0878 71.8821C59.5363 71.8821 59.0286 71.7913 58.5645 71.6098C58.1005 71.4282 57.6969 71.176 57.3539 70.8531C57.0109 70.5236 56.7453 70.1403 56.557 69.7031C56.3687 69.2592 56.2745 68.775 56.2745 68.2504C56.2745 67.7258 56.3687 67.245 56.557 66.8078C56.7453 66.364 57.0109 65.9806 57.3539 65.6578C57.6969 65.3283 58.1005 65.0727 58.5645 64.8911C59.0286 64.7095 59.533 64.6187 60.0777 64.6187C60.6292 64.6187 61.1336 64.7095 61.5909 64.8911C62.055 65.0727 62.4585 65.3283 62.8015 65.6578C63.1445 65.9806 63.4101 66.364 63.5984 66.8078C63.7868 67.245 63.8809 67.7258 63.8809 68.2504C63.8809 68.775 63.7868 69.2592 63.5984 69.7031C63.4101 70.147 63.1445 70.5303 62.8015 70.8531C62.4585 71.176 62.055 71.4282 61.5909 71.6098C61.1336 71.7913 60.6326 71.8821 60.0878 71.8821ZM60.0777 70.7321C60.4342 70.7321 60.7637 70.6716 61.0663 70.5505C61.369 70.4295 61.6313 70.258 61.8532 70.036C62.0751 69.8074 62.2466 69.5451 62.3677 69.2491C62.4955 68.9465 62.5594 68.6136 62.5594 68.2504C62.5594 67.8873 62.4955 67.5577 62.3677 67.2618C62.2466 66.9592 62.0751 66.6969 61.8532 66.4749C61.6313 66.2463 61.369 66.0714 61.0663 65.9504C60.7637 65.8293 60.4342 65.7688 60.0777 65.7688C59.7213 65.7688 59.3917 65.8293 59.0891 65.9504C58.7932 66.0714 58.5309 66.2463 58.3022 66.4749C58.0803 66.6969 57.9054 66.9592 57.7776 67.2618C57.6566 67.5577 57.596 67.8873 57.596 68.2504C57.596 68.6069 57.6566 68.9364 57.7776 69.2391C57.9054 69.5417 58.0803 69.8074 58.3022 70.036C58.5241 70.258 58.7864 70.4295 59.0891 70.5505C59.3917 70.6716 59.7213 70.7321 60.0777 70.7321ZM68.6095 71.8821C68.058 71.8821 67.5502 71.7913 67.0862 71.6098C66.6221 71.4282 66.2186 71.176 65.8756 70.8531C65.5326 70.5236 65.2669 70.1403 65.0786 69.7031C64.8903 69.2592 64.7962 68.775 64.7962 68.2504C64.7962 67.7258 64.8903 67.245 65.0786 66.8078C65.2669 66.364 65.5326 65.9806 65.8756 65.6578C66.2186 65.3283 66.6221 65.0727 67.0862 64.8911C67.5502 64.7095 68.0546 64.6187 68.5994 64.6187C69.1508 64.6187 69.6552 64.7095 70.1126 64.8911C70.5766 65.0727 70.9801 65.3283 71.3231 65.6578C71.6661 65.9806 71.9318 66.364 72.1201 66.8078C72.3084 67.245 72.4026 67.7258 72.4026 68.2504C72.4026 68.775 72.3084 69.2592 72.1201 69.7031C71.9318 70.147 71.6661 70.5303 71.3231 70.8531C70.9801 71.176 70.5766 71.4282 70.1126 71.6098C69.6552 71.7913 69.1542 71.8821 68.6095 71.8821ZM68.5994 70.7321C68.9558 70.7321 69.2854 70.6716 69.588 70.5505C69.8906 70.4295 70.1529 70.258 70.3749 70.036C70.5968 69.8074 70.7683 69.5451 70.8894 69.2491C71.0171 68.9465 71.081 68.6136 71.081 68.2504C71.081 67.8873 71.0171 67.5577 70.8894 67.2618C70.7683 66.9592 70.5968 66.6969 70.3749 66.4749C70.1529 66.2463 69.8906 66.0714 69.588 65.9504C69.2854 65.8293 68.9558 65.7688 68.5994 65.7688C68.2429 65.7688 67.9134 65.8293 67.6107 65.9504C67.3148 66.0714 67.0525 66.2463 66.8239 66.4749C66.6019 66.6969 66.4271 66.9592 66.2993 67.2618C66.1782 67.5577 66.1177 67.8873 66.1177 68.2504C66.1177 68.6069 66.1782 68.9364 66.2993 69.2391C66.4271 69.5417 66.6019 69.8074 66.8239 70.036C67.0458 70.258 67.3081 70.4295 67.6107 70.5505C67.9134 70.6716 68.2429 70.7321 68.5994 70.7321ZM82.6769 71.8821C82.1388 71.8821 81.6378 71.7947 81.1737 71.6198C80.7164 71.4383 80.3162 71.1861 79.9733 70.8632C79.637 70.5337 79.3747 70.147 79.1864 69.7031C78.9981 69.2592 78.9039 68.775 78.9039 68.2504C78.9039 67.7258 78.9981 67.2416 79.1864 66.7977C79.3747 66.3539 79.6403 65.9705 79.9833 65.6477C80.3263 65.3182 80.7265 65.066 81.1838 64.8911C81.6411 64.7095 82.1422 64.6187 82.6869 64.6187C83.2653 64.6187 83.7933 64.7196 84.2708 64.9214C84.7483 65.1164 85.1518 65.409 85.4813 65.799L84.6339 66.596C84.3784 66.3202 84.0925 66.1151 83.7765 65.9806C83.4604 65.8394 83.1174 65.7688 82.7475 65.7688C82.3776 65.7688 82.0379 65.8293 81.7286 65.9504C81.4259 66.0714 81.1603 66.2429 80.9316 66.4648C80.7097 66.6868 80.5348 66.9491 80.407 67.2517C80.286 67.5544 80.2255 67.8873 80.2255 68.2504C80.2255 68.6136 80.286 68.9465 80.407 69.2491C80.5348 69.5518 80.7097 69.8141 80.9316 70.036C81.1603 70.258 81.4259 70.4295 81.7286 70.5505C82.0379 70.6716 82.3776 70.7321 82.7475 70.7321C83.1174 70.7321 83.4604 70.6648 83.7765 70.5303C84.0925 70.3891 84.3784 70.1772 84.6339 69.8948L85.4813 70.7018C85.1518 71.0852 84.7483 71.3777 84.2708 71.5795C83.7933 71.7812 83.262 71.8821 82.6769 71.8821ZM89.8298 71.8821C89.2784 71.8821 88.7706 71.7913 88.3065 71.6098C87.8425 71.4282 87.439 71.176 87.096 70.8531C86.753 70.5236 86.4873 70.1403 86.299 69.7031C86.1107 69.2592 86.0166 68.775 86.0166 68.2504C86.0166 67.7258 86.1107 67.245 86.299 66.8078C86.4873 66.364 86.753 65.9806 87.096 65.6578C87.439 65.3283 87.8425 65.0727 88.3065 64.8911C88.7706 64.7095 89.275 64.6187 89.8198 64.6187C90.3712 64.6187 90.8756 64.7095 91.333 64.8911C91.797 65.0727 92.2005 65.3283 92.5435 65.6578C92.8865 65.9806 93.1522 66.364 93.3405 66.8078C93.5288 67.245 93.623 67.7258 93.623 68.2504C93.623 68.775 93.5288 69.2592 93.3405 69.7031C93.1522 70.147 92.8865 70.5303 92.5435 70.8531C92.2005 71.176 91.797 71.4282 91.333 71.6098C90.8756 71.7913 90.3746 71.8821 89.8298 71.8821ZM89.8198 70.7321C90.1762 70.7321 90.5057 70.6716 90.8084 70.5505C91.111 70.4295 91.3733 70.258 91.5953 70.036C91.8172 69.8074 91.9887 69.5451 92.1097 69.2491C92.2375 68.9465 92.3014 68.6136 92.3014 68.2504C92.3014 67.8873 92.2375 67.5577 92.1097 67.2618C91.9887 66.9592 91.8172 66.6969 91.5953 66.4749C91.3733 66.2463 91.111 66.0714 90.8084 65.9504C90.5057 65.8293 90.1762 65.7688 89.8198 65.7688C89.4633 65.7688 89.1338 65.8293 88.8311 65.9504C88.5352 66.0714 88.2729 66.2463 88.0443 66.4749C87.8223 66.6969 87.6475 66.9592 87.5197 67.2618C87.3986 67.5577 87.3381 67.8873 87.3381 68.2504C87.3381 68.6069 87.3986 68.9364 87.5197 69.2391C87.6475 69.5417 87.8223 69.8074 88.0443 70.036C88.2662 70.258 88.5285 70.4295 88.8311 70.5505C89.1338 70.6716 89.4633 70.7321 89.8198 70.7321ZM98.6642 71.3273C97.7765 71.3273 97.0199 71.2062 96.3944 70.9641C95.7757 70.722 95.3015 70.3723 94.972 69.915C94.6424 69.4509 94.4777 68.8927 94.4777 68.2403C94.4777 67.5745 94.6424 67.013 94.972 66.5556C95.3015 66.0983 95.7757 65.7486 96.3944 65.5065C97.0199 65.2644 97.7765 65.1433 98.6642 65.1433C98.6777 65.1433 98.7079 65.1433 98.755 65.1433C98.8088 65.1433 98.8593 65.1433 98.9063 65.1433C98.9601 65.1433 98.9904 65.1433 98.9971 65.1433C99.8782 65.1433 100.628 65.2644 101.247 65.5065C101.866 65.7486 102.336 66.1017 102.659 66.5657C102.982 67.023 103.143 67.5813 103.143 68.2403C103.143 68.886 102.982 69.4408 102.659 69.9049C102.343 70.3689 101.879 70.722 101.267 70.9641C100.662 71.2062 99.9219 71.3273 99.0476 71.3273C99.0341 71.3273 98.9971 71.3273 98.9366 71.3273C98.8828 71.3273 98.8256 71.3273 98.7651 71.3273C98.7113 71.3273 98.6777 71.3273 98.6642 71.3273ZM98.7954 70.3084C98.8088 70.3084 98.829 70.3084 98.8559 70.3084C98.8828 70.3084 98.8996 70.3084 98.9063 70.3084C99.5587 70.3017 100.103 70.221 100.541 70.0663C100.984 69.9116 101.317 69.6829 101.539 69.3803C101.768 69.0709 101.882 68.6876 101.882 68.2303C101.882 67.7729 101.768 67.3929 101.539 67.0903C101.311 66.7877 100.978 66.559 100.541 66.4043C100.103 66.2496 99.5654 66.1723 98.9265 66.1723C98.9198 66.1723 98.8996 66.1723 98.866 66.1723C98.8324 66.1723 98.8088 66.1723 98.7954 66.1723C98.1296 66.1723 97.568 66.2496 97.1107 66.4043C96.6601 66.5523 96.3204 66.7809 96.0918 67.0903C95.8698 67.3929 95.7589 67.7763 95.7589 68.2403C95.7589 68.7044 95.8766 69.0911 96.1119 69.4005C96.3541 69.7031 96.7004 69.9318 97.151 70.0865C97.6016 70.2344 98.1497 70.3084 98.7954 70.3084ZM98.2103 72.0637V64.4371H99.4208V72.0637H98.2103ZM103.524 71.7812L106.702 64.7196H107.993L111.181 71.7812H109.809L107.075 65.4157H107.6L104.876 71.7812H103.524ZM104.987 70.147L105.34 69.118H109.153L109.506 70.147H104.987Z" fill="#1A1A1A"/>
</svg>
